# File created by Blade
# Date/Time:  Mon Sep 22 19:00:17 2014
# Frame Rate: 120.000 fps
#------------------------------------------------------
:FULLY-SPECIFIED
:DEGREES
2901
root -0.565863 32.815387 -3.617649 42.439151 -1.646087 0.896938
Spine -48.446306 -21.486645 17.631639
Head 11.671599 2.172924 -6.549589
LeftShoulder -18.605918 43.249345 3.838625
LeftArm 65.924410 35.290271 -56.378554
LeftForeArm 10.583894 0.000000 8.681934
LeftHand -19.646091 -0.000000 -4.970543
LeftHandThumb1 -26.253704 0.000000 33.147579
RightShoulder -37.455184 -32.654317 -37.564126
RightArm -313.199872 75.023275 -299.779132
RightForeArm 61.974805 -0.000000 126.503779
RightHand 18.529813 -0.000000 -4.842550
RightHandThumb1 -24.326973 -0.000000 -32.862282
LeftUpLeg -36.068028 8.469068 -4.395944
LeftLeg -1.247985 -0.000000 0.000000
LeftFoot -1.672471 -1.491493 -4.007897
LeftToeBase 2.064052 -0.000000 -0.000000
RightUpLeg -37.666900 -7.832997 2.957802
RightLeg -0.918455 -0.000000 0.000000
RightFoot -6.723542 -5.717722 19.843684
RightToeBase 16.002441 -0.000000 -0.000000
2902
root -0.565716 32.815277 -3.618799 42.443582 -1.592695 0.903069
Spine -48.455298 -21.497776 17.637239
Head 11.781059 2.189857 -6.544026
LeftShoulder -18.615649 43.271342 3.827181
LeftArm 65.882106 35.267659 -56.408459
LeftForeArm 10.254040 0.000000 8.551187
LeftHand -19.611949 -0.000000 -4.972375
LeftHandThumb1 -26.253704 0.000000 33.147579
RightShoulder -37.412771 -32.609331 -37.586893
RightArm -312.417793 75.144927 -298.917977
RightForeArm 61.988254 -0.000000 126.508009
RightHand 18.624539 -0.000000 -4.792295
RightHandThumb1 -24.326973 -0.000000 -32.862282
LeftUpLeg -36.084963 8.437338 -4.373944
LeftLeg -1.235621 -0.000000 0.000000
LeftFoot -1.679474 -1.510560 -4.016088
LeftToeBase 2.103309 -0.000000 -0.000000
RightUpLeg -37.662117 -7.845913 2.965535
RightLeg -0.925452 -0.000000 0.000000
RightFoot -6.752889 -5.757753 19.844826
RightToeBase 16.026360 -0.000000 -0.000000
2903
root -0.565739 32.815346 -3.619512 42.451388 -1.546517 0.909638
Spine -48.466697 -21.500167 17.641120
Head 11.880805 2.195866 -6.578837
LeftShoulder -18.625505 43.291595 3.807368
LeftArm 65.838037 35.244851 -56.486180
LeftForeArm 10.437051 0.000000 8.378377
LeftHand -19.685953 -0.000000 -4.868485
LeftHandThumb1 -26.253704 0.000000 33.147579
RightShoulder -37.369368 -32.550232 -37.621668
RightArm -311.500655 75.295684 -297.913664
RightForeArm 62.043353 0.000000 126.511009
RightHand 18.661284 0.000000 -4.853697
RightHandThumb1 -24.326973 -0.000000 -32.862282
LeftUpLeg -36.103482 8.416724 -4.364728
LeftLeg -1.226521 -0.000000 0.000000
LeftFoot -1.663445 -1.523730 -4.006473
LeftToeBase 2.046849 -0.000000 -0.000000
RightUpLeg -37.660666 -7.866234 2.978336
RightLeg -0.934768 -0.000000 0.000000
RightFoot -6.751959 -5.771677 19.834184
RightToeBase 15.990741 -0.000000 -0.000000
2904
root -0.565017 32.815995 -3.620573 42.458785 -1.484444 0.919285
Spine -48.509946 -21.543729 17.672364
Head 12.060752 2.238331 -6.591082
LeftShoulder -18.607049 43.327003 3.830300
LeftArm 65.724105 35.198690 -56.643985
LeftForeArm 10.458613 -0.000000 8.252967
LeftHand -19.724361 -0.000000 -4.912785
LeftHandThumb1 -26.253704 0.000000 33.147579
RightShoulder -37.242636 -32.454616 -37.707009
RightArm -310.706291 75.462874 -297.028983
RightForeArm 61.943361 -0.000000 126.514648
RightHand 18.554807 -0.000000 -4.888926
RightHandThumb1 -24.326973 -0.000000 -32.862282
LeftUpLeg -36.125023 8.384853 -4.347629
LeftLeg -1.214716 -0.000000 0.000000
LeftFoot -1.651013 -1.556019 -4.011849
LeftToeBase 2.050224 -0.000000 -0.000000
RightUpLeg -37.662735 -7.914350 3.011607
RightLeg -0.941952 -0.000000 0.000000
RightFoot -6.760984 -5.785720 19.832929
RightToeBase 16.026104 -0.000000 -0.000000
2905
root -0.564545 32.816484 -3.621790 42.464107 -1.434603 0.929047
Spine -48.503028 -21.535435 17.675250
Head 12.126032 2.242102 -6.705182
LeftShoulder -18.625005 43.311996 3.801391
LeftArm 65.672421 35.162066 -56.675728
LeftForeArm 10.269928 -0.000000 8.117900
LeftHand -19.617874 -0.000000 -5.033708
LeftHandThumb1 -26.253704 0.000000 33.147579
RightShoulder -37.256072 -32.374583 -37.751490
RightArm -309.623248 75.608654 -295.854191
RightForeArm 61.833447 -0.000000 126.538818
RightHand 18.453569 -0.000000 -4.583309
RightHandThumb1 -24.326973 -0.000000 -32.862282
LeftUpLeg -36.142858 8.349578 -4.331539
LeftLeg -1.201948 -0.000000 0.000000
LeftFoot -1.645685 -1.566568 -4.006377
LeftToeBase 2.059045 -0.000000 -0.000000
RightUpLeg -37.667536 -7.959978 3.039044
RightLeg -0.942087 -0.000000 0.000000
RightFoot -6.751521 -5.769742 19.859145
RightToeBase 15.966430 -0.000000 -0.000000
